<svg width="103" height="53" viewBox="0 0 103 53" fill="none" xmlns="http://www.w3.org/2000/svg">
<path d="M20.9906 23.164H15.5925V37.0328C15.5925 41.3816 16.1921 43.9297 21.4403 43.9297H21.5901C22.7143 43.9297 23.6886 44.8291 23.6886 45.9532V50.9016C23.6886 51.9508 22.9391 52.7752 21.9649 52.9251C21.2904 53.0001 20.6159 53.0001 19.7165 53.0001C9.97169 53.0001 6.07254 46.4779 6.07254 38.6066V23.164H2.62306C1.19911 23.164 0 21.9649 0 20.5409V17.1684C0 15.6695 1.19911 14.4684 2.62306 14.4684H6.07254V9.22023C6.07254 7.72133 7.19671 6.52222 8.69561 6.52222H12.8945C14.3934 6.52222 15.5946 7.72133 15.5946 9.22023V14.4684H20.9926C22.4915 14.4684 23.6906 15.6675 23.6906 17.1684V20.5409C23.6906 21.9649 22.4915 23.164 20.9926 23.164" fill="#662D91"/>
<path d="M100.94 52.4775H94.418C93.3688 52.4775 92.3945 51.9529 91.7949 51.1285L79.2751 34.4097V49.7774C79.2751 51.2763 78.076 52.4754 76.6521 52.4754H72.4531C70.9543 52.4754 69.8301 51.2763 69.8301 49.7774V2.698C69.8301 1.19911 70.9543 0 72.4531 0H76.6521C78.076 0 79.2751 1.19911 79.2751 2.698V30.5855L90.0712 15.8174C90.7457 14.993 91.72 14.4684 92.7692 14.4684H98.6169C100.041 14.4684 100.79 16.0422 99.9659 17.1664L88.4954 31.9345L102.289 49.7774C103.114 50.9016 102.364 52.4754 100.94 52.4754" fill="#662D91"/>
<path d="M60.4215 46.3824C65.139 40.8912 66.4212 33.1213 63.6948 26.5889C62.2911 23.2266 59.9739 20.3402 56.9903 18.2437C54.0107 16.1493 50.5147 14.9421 46.8809 14.7558C40.707 14.4398 34.7135 17.2978 30.9095 22.1996C30.3059 22.9774 29.759 23.8038 29.2729 24.6809C27.6039 27.6908 26.8119 31.1646 26.9841 34.7255C27.1542 38.2681 28.2662 41.6508 30.1966 44.5108C32.5563 48.0028 36.101 50.6502 40.1804 51.9648C44.2497 53.2753 48.6714 53.2044 52.6313 51.7643C53.6157 51.4057 54.2801 50.632 54.4543 49.6415C54.6427 48.5741 54.2396 47.4438 53.4274 46.7612C52.6921 46.1434 51.7219 45.9895 50.7658 46.3379C48.0982 47.3101 45.4873 47.462 42.7852 46.8078C40.2756 46.2001 37.8146 44.7114 36.0321 42.7263C34.4684 40.9824 33.2632 38.5132 32.8885 36.2831C32.7852 35.6694 32.7183 35.0476 32.688 34.4379C32.6718 34.0976 32.6657 33.7512 32.6717 33.4069V33.2388C32.6758 33.1091 32.6839 32.9815 32.6961 32.8559L32.7123 32.702C32.8459 31.3449 33.1457 30.0587 33.5772 28.9791C33.8141 28.3876 34.0896 27.8083 34.3955 27.2574C34.7965 26.5342 34.9444 26.3216 35.392 25.7443C35.7931 25.2177 36.2448 24.7133 36.7147 24.2454C37.1887 23.7714 37.4297 23.5608 38.1022 23.0706C40.1784 21.5575 42.5037 20.6967 45.0133 20.5063C47.5412 20.3159 49.8685 20.7858 52.131 21.9424C54.4118 23.1071 56.251 24.8571 57.5959 27.1439C58.2724 28.2924 58.7829 29.6232 59.113 31.0978C59.186 31.4279 59.3095 32.3171 59.35 32.9248C59.3966 33.5952 59.3885 34.4642 59.3622 34.768C59.109 37.7861 58.0355 40.3585 56.0889 42.6291C54.8817 44.0308 55.3577 45.71 56.4454 46.6458C57.5189 47.5694 59.2265 47.778 60.4175 46.3926" fill="#662D91"/>
<path d="M55.4041 33.812C55.4041 38.9913 51.2093 43.1903 46.0361 43.1903C40.8628 43.1903 36.668 38.9913 36.668 33.812C36.668 28.6328 40.8628 24.4338 46.0361 24.4338C51.2093 24.4338 55.4041 28.6328 55.4041 33.812Z" fill="#662D91"/>
</svg>
